<svg width="33" height="33" viewBox="0 0 33 33" fill="none" xmlns="http://www.w3.org/2000/svg">
<path fill-rule="evenodd" clip-rule="evenodd" d="M16.2857 32.5714C25.2801 32.5714 32.5714 25.2801 32.5714 16.2857C32.5714 7.29136 25.2801 0 16.2857 0C7.29136 0 0 7.29136 0 16.2857C0 25.2801 7.29136 32.5714 16.2857 32.5714Z" fill="white" fill-opacity="0.8"/>
<path fill-rule="evenodd" clip-rule="evenodd" d="M20.9957 22.5491C20.8779 22.5456 20.7606 22.5107 20.6542 22.4435C20.6531 22.4435 20.5168 22.3557 20.2373 22.2033C19.9573 22.0506 19.5449 21.8403 19.031 21.6197C18.0043 21.1753 16.5671 20.6834 14.9609 20.4946C14.4677 20.4371 13.9931 20.4018 13.5392 20.3868C11.4979 20.3185 9.89355 20.6274 9.23966 20.7801C9.02082 20.8311 8.9197 20.8622 8.9197 20.8622C8.55559 20.9708 8.1745 20.7579 8.06735 20.388C7.96132 20.0173 8.1696 19.629 8.53333 19.5207C8.57974 19.5073 10.6493 18.8938 13.5826 18.9901C14.0716 19.0069 14.5858 19.0442 15.1171 19.1067C18.6808 19.5307 21.3333 21.2325 21.3824 21.2582C21.7046 21.4635 21.802 21.8948 21.6005 22.2214C21.4669 22.4408 21.2326 22.5571 20.9957 22.5491ZM23.4942 18.4283C23.3259 18.7011 23.0339 18.8477 22.7377 18.8373C22.5906 18.8324 22.4438 18.7886 22.311 18.7042C22.3102 18.7053 22.28 18.6842 22.1989 18.6363C22.117 18.5879 21.994 18.5169 21.834 18.4298C21.5118 18.2541 21.0394 18.0124 20.4474 17.7572C19.2664 17.2465 17.6134 16.6824 15.7668 16.466C15.2016 16.3992 14.6549 16.3597 14.1323 16.3424C11.7835 16.2634 9.93732 16.6183 9.18684 16.794C8.9363 16.8531 8.82273 16.8869 8.82197 16.8881C8.36731 17.0224 7.88963 16.7568 7.75682 16.2937C7.62325 15.8301 7.88397 15.3447 8.33977 15.2112C8.3975 15.1932 10.7927 14.4837 14.1878 14.5965C14.7537 14.6153 15.3476 14.6575 15.963 14.7304C20.0924 15.2223 23.1622 17.1897 23.2233 17.2246C23.6244 17.4817 23.7467 18.02 23.4942 18.4283ZM25.5242 14.5831C25.3216 14.9108 24.9699 15.0857 24.6156 15.0738C24.4402 15.0681 24.2632 15.0163 24.1043 14.9142C24.1043 14.9142 24.0674 14.8904 23.9715 14.8332C23.8764 14.7772 23.7319 14.6932 23.5418 14.5896C23.1629 14.3843 22.6057 14.1 21.9084 13.7984C20.5161 13.1971 18.5688 12.5313 16.3943 12.2761C15.7272 12.1979 15.0824 12.1518 14.4674 12.1319C11.2387 12.0221 8.81631 12.6088 8.30807 12.7458C8.23563 12.765 8.20997 12.7727 8.20997 12.7727C7.664 12.935 7.09199 12.6157 6.93201 12.0609C6.77202 11.5053 7.08444 10.9224 7.63155 10.7601C7.70097 10.7409 10.5278 9.90285 14.5345 10.0364C15.2027 10.0583 15.903 10.1074 16.6294 10.1933C21.505 10.7747 25.1246 13.0958 25.1982 13.1376C25.68 13.4446 25.826 14.0927 25.5242 14.5831Z" fill="#1E1E1E"/>
</svg>
